<mxfile host="www.draw.io" modified="2020-01-06T03:33:18.588Z" agent="Mozilla/5.0 (Windows NT 10.0; Win64; x64) AppleWebKit/537.36 (KHTML, like Gecko) Chrome/78.0.3904.108 Safari/537.36" etag="vPp8aIFoGv-vyu5nwqO0" version="12.4.8" type="github">
  <diagram id="5xUPmbE38Lrir8h0bhYE" name="第 1 页">
    <mxGraphModel dx="1422" dy="762" grid="1" gridSize="10" guides="1" tooltips="1" connect="1" arrows="1" fold="1" page="1" pageScale="1" pageWidth="827" pageHeight="1169" math="0" shadow="0">
      <root>
        <mxCell id="0"/>
        <mxCell id="1" parent="0"/>
        <mxCell id="OBPIoWL63oL6TmMBae35-1" value="" style="rounded=0;whiteSpace=wrap;html=1;" vertex="1" parent="1">
          <mxGeometry x="190" y="240" width="730" height="480" as="geometry"/>
        </mxCell>
        <mxCell id="OBPIoWL63oL6TmMBae35-2" value="NameNode" style="text;html=1;strokeColor=none;fillColor=none;align=center;verticalAlign=middle;whiteSpace=wrap;rounded=0;" vertex="1" parent="1">
          <mxGeometry x="530" y="260" width="85" height="20" as="geometry"/>
        </mxCell>
        <mxCell id="OBPIoWL63oL6TmMBae35-3" value="" style="rounded=0;whiteSpace=wrap;html=1;" vertex="1" parent="1">
          <mxGeometry x="220" y="300" width="350" height="100" as="geometry"/>
        </mxCell>
        <mxCell id="OBPIoWL63oL6TmMBae35-4" value="NameNodeHttpServer" style="text;html=1;strokeColor=none;fillColor=none;align=center;verticalAlign=middle;whiteSpace=wrap;rounded=0;" vertex="1" parent="1">
          <mxGeometry x="293" y="300" width="177" height="40" as="geometry"/>
        </mxCell>
        <mxCell id="OBPIoWL63oL6TmMBae35-5" value="servlet" style="rounded=0;whiteSpace=wrap;html=1;" vertex="1" parent="1">
          <mxGeometry x="240" y="340" width="60" height="20" as="geometry"/>
        </mxCell>
        <mxCell id="OBPIoWL63oL6TmMBae35-6" value="servlet" style="rounded=0;whiteSpace=wrap;html=1;" vertex="1" parent="1">
          <mxGeometry x="240" y="370" width="60" height="20" as="geometry"/>
        </mxCell>
        <mxCell id="OBPIoWL63oL6TmMBae35-17" style="edgeStyle=orthogonalEdgeStyle;rounded=0;orthogonalLoop=1;jettySize=auto;html=1;exitX=0;exitY=0.25;exitDx=0;exitDy=0;" edge="1" parent="1" source="OBPIoWL63oL6TmMBae35-9" target="OBPIoWL63oL6TmMBae35-5">
          <mxGeometry relative="1" as="geometry"/>
        </mxCell>
        <mxCell id="OBPIoWL63oL6TmMBae35-19" style="edgeStyle=orthogonalEdgeStyle;rounded=0;orthogonalLoop=1;jettySize=auto;html=1;exitX=0;exitY=0.75;exitDx=0;exitDy=0;entryX=1;entryY=0.75;entryDx=0;entryDy=0;" edge="1" parent="1" source="OBPIoWL63oL6TmMBae35-9" target="OBPIoWL63oL6TmMBae35-6">
          <mxGeometry relative="1" as="geometry"/>
        </mxCell>
        <mxCell id="OBPIoWL63oL6TmMBae35-20" style="edgeStyle=orthogonalEdgeStyle;rounded=0;orthogonalLoop=1;jettySize=auto;html=1;exitX=1;exitY=0.5;exitDx=0;exitDy=0;entryX=0;entryY=0.5;entryDx=0;entryDy=0;" edge="1" parent="1" source="OBPIoWL63oL6TmMBae35-9" target="OBPIoWL63oL6TmMBae35-10">
          <mxGeometry relative="1" as="geometry"/>
        </mxCell>
        <mxCell id="OBPIoWL63oL6TmMBae35-9" value="HttpServer2" style="rounded=0;whiteSpace=wrap;html=1;" vertex="1" parent="1">
          <mxGeometry x="340" y="340" width="90" height="50" as="geometry"/>
        </mxCell>
        <mxCell id="OBPIoWL63oL6TmMBae35-10" value="监听端口&lt;br&gt;50070" style="rounded=0;whiteSpace=wrap;html=1;" vertex="1" parent="1">
          <mxGeometry x="470" y="345" width="90" height="40" as="geometry"/>
        </mxCell>
        <mxCell id="OBPIoWL63oL6TmMBae35-58" style="edgeStyle=orthogonalEdgeStyle;rounded=0;orthogonalLoop=1;jettySize=auto;html=1;exitX=0.75;exitY=0;exitDx=0;exitDy=0;entryX=0;entryY=0.75;entryDx=0;entryDy=0;" edge="1" parent="1" source="OBPIoWL63oL6TmMBae35-23" target="OBPIoWL63oL6TmMBae35-56">
          <mxGeometry relative="1" as="geometry"/>
        </mxCell>
        <mxCell id="OBPIoWL63oL6TmMBae35-23" value="" style="rounded=0;whiteSpace=wrap;html=1;" vertex="1" parent="1">
          <mxGeometry x="220" y="430" width="350" height="100" as="geometry"/>
        </mxCell>
        <mxCell id="OBPIoWL63oL6TmMBae35-24" value="FSNamesystem" style="text;html=1;strokeColor=none;fillColor=none;align=center;verticalAlign=middle;whiteSpace=wrap;rounded=0;" vertex="1" parent="1">
          <mxGeometry x="296.5" y="430" width="177" height="40" as="geometry"/>
        </mxCell>
        <mxCell id="OBPIoWL63oL6TmMBae35-37" style="edgeStyle=orthogonalEdgeStyle;rounded=0;orthogonalLoop=1;jettySize=auto;html=1;exitX=0.5;exitY=1;exitDx=0;exitDy=0;entryX=0.5;entryY=1;entryDx=0;entryDy=0;" edge="1" parent="1" source="OBPIoWL63oL6TmMBae35-25" target="OBPIoWL63oL6TmMBae35-33">
          <mxGeometry relative="1" as="geometry"/>
        </mxCell>
        <mxCell id="OBPIoWL63oL6TmMBae35-40" style="edgeStyle=orthogonalEdgeStyle;rounded=0;orthogonalLoop=1;jettySize=auto;html=1;exitX=0.5;exitY=0;exitDx=0;exitDy=0;entryX=0.5;entryY=0;entryDx=0;entryDy=0;" edge="1" parent="1" source="OBPIoWL63oL6TmMBae35-25" target="OBPIoWL63oL6TmMBae35-32">
          <mxGeometry relative="1" as="geometry">
            <Array as="points">
              <mxPoint x="305" y="410"/>
              <mxPoint x="85" y="410"/>
            </Array>
          </mxGeometry>
        </mxCell>
        <mxCell id="OBPIoWL63oL6TmMBae35-25" value="FSImage" style="rounded=0;whiteSpace=wrap;html=1;" vertex="1" parent="1">
          <mxGeometry x="240" y="470" width="130" height="50" as="geometry"/>
        </mxCell>
        <mxCell id="OBPIoWL63oL6TmMBae35-62" style="edgeStyle=orthogonalEdgeStyle;rounded=0;orthogonalLoop=1;jettySize=auto;html=1;entryX=0;entryY=0.25;entryDx=0;entryDy=0;" edge="1" parent="1" source="OBPIoWL63oL6TmMBae35-26" target="OBPIoWL63oL6TmMBae35-61">
          <mxGeometry relative="1" as="geometry"/>
        </mxCell>
        <mxCell id="OBPIoWL63oL6TmMBae35-26" value="LeaseManager" style="rounded=0;whiteSpace=wrap;html=1;" vertex="1" parent="1">
          <mxGeometry x="460" y="450" width="93" height="20" as="geometry"/>
        </mxCell>
        <mxCell id="OBPIoWL63oL6TmMBae35-31" style="edgeStyle=orthogonalEdgeStyle;rounded=0;orthogonalLoop=1;jettySize=auto;html=1;exitX=0;exitY=0.5;exitDx=0;exitDy=0;entryX=1;entryY=0;entryDx=0;entryDy=0;" edge="1" parent="1" source="OBPIoWL63oL6TmMBae35-27" target="OBPIoWL63oL6TmMBae35-30">
          <mxGeometry relative="1" as="geometry"/>
        </mxCell>
        <mxCell id="OBPIoWL63oL6TmMBae35-63" style="edgeStyle=orthogonalEdgeStyle;rounded=0;orthogonalLoop=1;jettySize=auto;html=1;entryX=0;entryY=0.75;entryDx=0;entryDy=0;" edge="1" parent="1" source="OBPIoWL63oL6TmMBae35-27" target="OBPIoWL63oL6TmMBae35-61">
          <mxGeometry relative="1" as="geometry"/>
        </mxCell>
        <mxCell id="OBPIoWL63oL6TmMBae35-27" value="BlockManager" style="rounded=0;whiteSpace=wrap;html=1;" vertex="1" parent="1">
          <mxGeometry x="460" y="480" width="93" height="20" as="geometry"/>
        </mxCell>
        <mxCell id="OBPIoWL63oL6TmMBae35-70" style="edgeStyle=orthogonalEdgeStyle;rounded=0;orthogonalLoop=1;jettySize=auto;html=1;exitX=0.5;exitY=1;exitDx=0;exitDy=0;entryX=0;entryY=0.5;entryDx=0;entryDy=0;" edge="1" parent="1" source="OBPIoWL63oL6TmMBae35-28" target="OBPIoWL63oL6TmMBae35-69">
          <mxGeometry relative="1" as="geometry"/>
        </mxCell>
        <mxCell id="OBPIoWL63oL6TmMBae35-28" value="SafeMode" style="rounded=0;whiteSpace=wrap;html=1;" vertex="1" parent="1">
          <mxGeometry x="460" y="510" width="93" height="20" as="geometry"/>
        </mxCell>
        <mxCell id="OBPIoWL63oL6TmMBae35-30" value="启动多个后台线程" style="text;html=1;strokeColor=none;fillColor=none;align=center;verticalAlign=middle;whiteSpace=wrap;rounded=0;" vertex="1" parent="1">
          <mxGeometry x="400" y="490" width="40" height="20" as="geometry"/>
        </mxCell>
        <mxCell id="OBPIoWL63oL6TmMBae35-34" style="edgeStyle=orthogonalEdgeStyle;rounded=0;orthogonalLoop=1;jettySize=auto;html=1;entryX=0;entryY=0.25;entryDx=0;entryDy=0;" edge="1" parent="1" source="OBPIoWL63oL6TmMBae35-32" target="OBPIoWL63oL6TmMBae35-25">
          <mxGeometry relative="1" as="geometry"/>
        </mxCell>
        <mxCell id="OBPIoWL63oL6TmMBae35-32" value="fsimage" style="rounded=0;whiteSpace=wrap;html=1;" vertex="1" parent="1">
          <mxGeometry x="50" y="457.5" width="70" height="30" as="geometry"/>
        </mxCell>
        <mxCell id="OBPIoWL63oL6TmMBae35-35" style="edgeStyle=orthogonalEdgeStyle;rounded=0;orthogonalLoop=1;jettySize=auto;html=1;entryX=0;entryY=0.75;entryDx=0;entryDy=0;" edge="1" parent="1" source="OBPIoWL63oL6TmMBae35-33" target="OBPIoWL63oL6TmMBae35-25">
          <mxGeometry relative="1" as="geometry"/>
        </mxCell>
        <mxCell id="OBPIoWL63oL6TmMBae35-33" value="edits文件" style="rounded=0;whiteSpace=wrap;html=1;" vertex="1" parent="1">
          <mxGeometry x="50" y="502.5" width="70" height="30" as="geometry"/>
        </mxCell>
        <mxCell id="OBPIoWL63oL6TmMBae35-36" value="内存中合并fsimage和edits" style="text;html=1;strokeColor=none;fillColor=none;align=center;verticalAlign=middle;whiteSpace=wrap;rounded=0;" vertex="1" parent="1">
          <mxGeometry x="140" y="437.5" width="40" height="20" as="geometry"/>
        </mxCell>
        <mxCell id="OBPIoWL63oL6TmMBae35-39" value="&lt;span style=&quot;white-space: nowrap ; background-color: rgb(255 , 255 , 255)&quot;&gt;打开一个新的edits文件，&lt;/span&gt;&lt;br style=&quot;white-space: nowrap&quot;&gt;&lt;span style=&quot;white-space: nowrap ; background-color: rgb(255 , 255 , 255)&quot;&gt;供后续写文件&lt;/span&gt;" style="text;html=1;strokeColor=none;fillColor=none;align=center;verticalAlign=middle;whiteSpace=wrap;rounded=0;" vertex="1" parent="1">
          <mxGeometry x="150" y="560" width="40" height="20" as="geometry"/>
        </mxCell>
        <mxCell id="OBPIoWL63oL6TmMBae35-41" value="合并后的元数据&lt;br&gt;写入磁盘fsimage文件" style="text;html=1;strokeColor=none;fillColor=none;align=center;verticalAlign=middle;whiteSpace=wrap;rounded=0;" vertex="1" parent="1">
          <mxGeometry x="50" y="380" width="140" height="30" as="geometry"/>
        </mxCell>
        <mxCell id="OBPIoWL63oL6TmMBae35-42" value="" style="rounded=0;whiteSpace=wrap;html=1;" vertex="1" parent="1">
          <mxGeometry x="220" y="580" width="350" height="100" as="geometry"/>
        </mxCell>
        <mxCell id="OBPIoWL63oL6TmMBae35-43" value="NameNodeRpcServer" style="text;html=1;strokeColor=none;fillColor=none;align=center;verticalAlign=middle;whiteSpace=wrap;rounded=0;" vertex="1" parent="1">
          <mxGeometry x="296.5" y="580" width="177" height="40" as="geometry"/>
        </mxCell>
        <mxCell id="OBPIoWL63oL6TmMBae35-44" value="service" style="rounded=0;whiteSpace=wrap;html=1;" vertex="1" parent="1">
          <mxGeometry x="260" y="620" width="60" height="20" as="geometry"/>
        </mxCell>
        <mxCell id="OBPIoWL63oL6TmMBae35-45" value="service" style="rounded=0;whiteSpace=wrap;html=1;" vertex="1" parent="1">
          <mxGeometry x="260" y="650" width="60" height="20" as="geometry"/>
        </mxCell>
        <mxCell id="OBPIoWL63oL6TmMBae35-50" style="edgeStyle=orthogonalEdgeStyle;rounded=0;orthogonalLoop=1;jettySize=auto;html=1;entryX=1;entryY=0.5;entryDx=0;entryDy=0;" edge="1" parent="1" source="OBPIoWL63oL6TmMBae35-46" target="OBPIoWL63oL6TmMBae35-44">
          <mxGeometry relative="1" as="geometry"/>
        </mxCell>
        <mxCell id="OBPIoWL63oL6TmMBae35-46" value="ServiceRpcServer" style="rounded=0;whiteSpace=wrap;html=1;" vertex="1" parent="1">
          <mxGeometry x="430" y="620" width="120" height="20" as="geometry"/>
        </mxCell>
        <mxCell id="OBPIoWL63oL6TmMBae35-51" style="edgeStyle=orthogonalEdgeStyle;rounded=0;orthogonalLoop=1;jettySize=auto;html=1;entryX=1;entryY=0.5;entryDx=0;entryDy=0;" edge="1" parent="1" source="OBPIoWL63oL6TmMBae35-47" target="OBPIoWL63oL6TmMBae35-45">
          <mxGeometry relative="1" as="geometry"/>
        </mxCell>
        <mxCell id="OBPIoWL63oL6TmMBae35-47" value="ClientRpcServer" style="rounded=0;whiteSpace=wrap;html=1;" vertex="1" parent="1">
          <mxGeometry x="430" y="650" width="120" height="20" as="geometry"/>
        </mxCell>
        <mxCell id="OBPIoWL63oL6TmMBae35-54" style="edgeStyle=orthogonalEdgeStyle;rounded=0;orthogonalLoop=1;jettySize=auto;html=1;entryX=0.5;entryY=1;entryDx=0;entryDy=0;" edge="1" parent="1" source="OBPIoWL63oL6TmMBae35-52" target="OBPIoWL63oL6TmMBae35-47">
          <mxGeometry relative="1" as="geometry"/>
        </mxCell>
        <mxCell id="OBPIoWL63oL6TmMBae35-52" value="DFSClient&lt;br&gt;hdfs客户端（命令行、Java）" style="rounded=0;whiteSpace=wrap;html=1;" vertex="1" parent="1">
          <mxGeometry x="323" y="760" width="180" height="60" as="geometry"/>
        </mxCell>
        <mxCell id="OBPIoWL63oL6TmMBae35-55" style="edgeStyle=orthogonalEdgeStyle;rounded=0;orthogonalLoop=1;jettySize=auto;html=1;entryX=1;entryY=0.5;entryDx=0;entryDy=0;" edge="1" parent="1" source="OBPIoWL63oL6TmMBae35-53" target="OBPIoWL63oL6TmMBae35-46">
          <mxGeometry relative="1" as="geometry">
            <Array as="points">
              <mxPoint x="560" y="790"/>
              <mxPoint x="560" y="630"/>
            </Array>
          </mxGeometry>
        </mxCell>
        <mxCell id="OBPIoWL63oL6TmMBae35-53" value="DataNode" style="rounded=0;whiteSpace=wrap;html=1;" vertex="1" parent="1">
          <mxGeometry x="590" y="760" width="180" height="60" as="geometry"/>
        </mxCell>
        <mxCell id="OBPIoWL63oL6TmMBae35-60" style="edgeStyle=orthogonalEdgeStyle;rounded=0;orthogonalLoop=1;jettySize=auto;html=1;entryX=0;entryY=0.5;entryDx=0;entryDy=0;" edge="1" parent="1" source="OBPIoWL63oL6TmMBae35-56" target="OBPIoWL63oL6TmMBae35-59">
          <mxGeometry relative="1" as="geometry"/>
        </mxCell>
        <mxCell id="OBPIoWL63oL6TmMBae35-56" value="NameNodeResourceChecker" style="rounded=0;whiteSpace=wrap;html=1;" vertex="1" parent="1">
          <mxGeometry x="600" y="380" width="190" height="42" as="geometry"/>
        </mxCell>
        <mxCell id="OBPIoWL63oL6TmMBae35-59" value="检查edits目录磁盘空间是否有100M" style="rounded=0;whiteSpace=wrap;html=1;" vertex="1" parent="1">
          <mxGeometry x="820" y="380" width="90" height="40" as="geometry"/>
        </mxCell>
        <mxCell id="OBPIoWL63oL6TmMBae35-65" style="edgeStyle=orthogonalEdgeStyle;rounded=0;orthogonalLoop=1;jettySize=auto;html=1;entryX=1;entryY=0.25;entryDx=0;entryDy=0;" edge="1" parent="1" source="OBPIoWL63oL6TmMBae35-61" target="OBPIoWL63oL6TmMBae35-28">
          <mxGeometry relative="1" as="geometry">
            <Array as="points">
              <mxPoint x="670" y="515"/>
            </Array>
          </mxGeometry>
        </mxCell>
        <mxCell id="OBPIoWL63oL6TmMBae35-61" value="获取状态为complete的block的总数量" style="rounded=0;whiteSpace=wrap;html=1;" vertex="1" parent="1">
          <mxGeometry x="620" y="450" width="100" height="45" as="geometry"/>
        </mxCell>
        <mxCell id="OBPIoWL63oL6TmMBae35-67" style="edgeStyle=orthogonalEdgeStyle;rounded=0;orthogonalLoop=1;jettySize=auto;html=1;entryX=1;entryY=0.5;entryDx=0;entryDy=0;" edge="1" parent="1" source="OBPIoWL63oL6TmMBae35-66" target="OBPIoWL63oL6TmMBae35-28">
          <mxGeometry relative="1" as="geometry"/>
        </mxCell>
        <mxCell id="OBPIoWL63oL6TmMBae35-66" value="DataNode" style="rounded=0;whiteSpace=wrap;html=1;" vertex="1" parent="1">
          <mxGeometry x="990" y="503.75" width="100" height="32.5" as="geometry"/>
        </mxCell>
        <mxCell id="OBPIoWL63oL6TmMBae35-68" value="汇报block情况更新safeBlock数量" style="text;html=1;strokeColor=none;fillColor=none;align=center;verticalAlign=middle;whiteSpace=wrap;rounded=0;" vertex="1" parent="1">
          <mxGeometry x="790" y="480" width="110" height="40" as="geometry"/>
        </mxCell>
        <mxCell id="OBPIoWL63oL6TmMBae35-73" style="edgeStyle=orthogonalEdgeStyle;rounded=0;orthogonalLoop=1;jettySize=auto;html=1;exitX=0;exitY=1;exitDx=0;exitDy=0;entryX=1;entryY=0.5;entryDx=0;entryDy=0;" edge="1" parent="1" source="OBPIoWL63oL6TmMBae35-69" target="OBPIoWL63oL6TmMBae35-71">
          <mxGeometry relative="1" as="geometry"/>
        </mxCell>
        <mxCell id="OBPIoWL63oL6TmMBae35-77" value="是" style="text;html=1;align=center;verticalAlign=middle;resizable=0;points=[];labelBackgroundColor=#ffffff;" vertex="1" connectable="0" parent="OBPIoWL63oL6TmMBae35-73">
          <mxGeometry x="-0.0606" relative="1" as="geometry">
            <mxPoint x="2" y="-10" as="offset"/>
          </mxGeometry>
        </mxCell>
        <mxCell id="OBPIoWL63oL6TmMBae35-76" style="edgeStyle=orthogonalEdgeStyle;rounded=0;orthogonalLoop=1;jettySize=auto;html=1;exitX=1;exitY=1;exitDx=0;exitDy=0;entryX=0;entryY=0.5;entryDx=0;entryDy=0;" edge="1" parent="1" source="OBPIoWL63oL6TmMBae35-69" target="OBPIoWL63oL6TmMBae35-74">
          <mxGeometry relative="1" as="geometry"/>
        </mxCell>
        <mxCell id="OBPIoWL63oL6TmMBae35-78" value="否" style="text;html=1;align=center;verticalAlign=middle;resizable=0;points=[];labelBackgroundColor=#ffffff;" vertex="1" connectable="0" parent="OBPIoWL63oL6TmMBae35-76">
          <mxGeometry x="-0.0857" y="2" relative="1" as="geometry">
            <mxPoint y="-11" as="offset"/>
          </mxGeometry>
        </mxCell>
        <mxCell id="OBPIoWL63oL6TmMBae35-69" value="safeBlock &amp;lt; blockThreadshold&lt;br&gt;或者&lt;br&gt;磁盘资源不充足" style="rhombus;whiteSpace=wrap;html=1;" vertex="1" parent="1">
          <mxGeometry x="650" y="527" width="170" height="86" as="geometry"/>
        </mxCell>
        <mxCell id="OBPIoWL63oL6TmMBae35-80" style="edgeStyle=orthogonalEdgeStyle;rounded=0;orthogonalLoop=1;jettySize=auto;html=1;exitX=0.5;exitY=1;exitDx=0;exitDy=0;" edge="1" parent="1" source="OBPIoWL63oL6TmMBae35-71" target="OBPIoWL63oL6TmMBae35-79">
          <mxGeometry relative="1" as="geometry"/>
        </mxCell>
        <mxCell id="OBPIoWL63oL6TmMBae35-71" value="进入SafeMode" style="rounded=0;whiteSpace=wrap;html=1;" vertex="1" parent="1">
          <mxGeometry x="590" y="620" width="80" height="30" as="geometry"/>
        </mxCell>
        <mxCell id="OBPIoWL63oL6TmMBae35-74" value="退出SafeMode" style="rounded=0;whiteSpace=wrap;html=1;" vertex="1" parent="1">
          <mxGeometry x="805" y="620" width="80" height="30" as="geometry"/>
        </mxCell>
        <mxCell id="OBPIoWL63oL6TmMBae35-79" value="SafeModeMonitor不断的检查是否离开SafeMode" style="rounded=0;whiteSpace=wrap;html=1;" vertex="1" parent="1">
          <mxGeometry x="610" y="680" width="140" height="40" as="geometry"/>
        </mxCell>
        <mxCell id="OBPIoWL63oL6TmMBae35-83" style="edgeStyle=orthogonalEdgeStyle;rounded=0;orthogonalLoop=1;jettySize=auto;html=1;entryX=1;entryY=0.25;entryDx=0;entryDy=0;" edge="1" parent="1" source="OBPIoWL63oL6TmMBae35-81" target="OBPIoWL63oL6TmMBae35-3">
          <mxGeometry relative="1" as="geometry"/>
        </mxCell>
        <mxCell id="OBPIoWL63oL6TmMBae35-81" value="l浏览器请求50070端口" style="rounded=0;whiteSpace=wrap;html=1;" vertex="1" parent="1">
          <mxGeometry x="980" y="301.88" width="100" height="36.25" as="geometry"/>
        </mxCell>
        <mxCell id="OBPIoWL63oL6TmMBae35-84" value="查看集群状态、文件目录、block等元数据" style="text;html=1;strokeColor=none;fillColor=none;align=center;verticalAlign=middle;whiteSpace=wrap;rounded=0;" vertex="1" parent="1">
          <mxGeometry x="750" y="280" width="100" height="38" as="geometry"/>
        </mxCell>
        <mxCell id="OBPIoWL63oL6TmMBae35-85" value="&lt;p class=&quot;MsoNormal&quot; style=&quot;font-size: 14px&quot;&gt;&lt;font style=&quot;font-size: 14px&quot;&gt;NameNode启动流程&lt;/font&gt;&lt;/p&gt;&lt;p class=&quot;MsoNormal&quot; style=&quot;font-size: 14px&quot;&gt;&lt;font style=&quot;font-size: 14px&quot;&gt;&lt;br&gt;&lt;/font&gt;&lt;/p&gt;&lt;p class=&quot;MsoNormal&quot; style=&quot;font-size: 14px&quot;&gt;&lt;font style=&quot;font-size: 14px&quot;&gt;NameNode.initialize() -&amp;gt; 初始化的核心逻辑&lt;/font&gt;&lt;/p&gt;&lt;p class=&quot;MsoNormal&quot; style=&quot;font-size: 14px&quot;&gt;&lt;font style=&quot;font-size: 14px&quot;&gt;-&amp;gt; startHttpServer() -&amp;gt; 启动自己的http服务器，后面接收别人发送过来的http请求&lt;/font&gt;&lt;/p&gt;&lt;p class=&quot;MsoNormal&quot; style=&quot;font-size: 14px&quot;&gt;&lt;font style=&quot;font-size: 14px&quot;&gt;-&amp;gt; loadNamesystem() -&amp;gt; 初始化FSNamesystem，磁盘加载fsimage和edits进行内存合并&lt;/font&gt;&lt;/p&gt;&lt;p class=&quot;MsoNormal&quot; style=&quot;font-size: 14px&quot;&gt;&lt;font style=&quot;font-size: 14px&quot;&gt;-&amp;gt; createRpcServer() -&amp;gt; 初始化rpc server，接收别人调用过来的rpc请求&lt;/font&gt;&lt;/p&gt;&lt;p class=&quot;MsoNormal&quot; style=&quot;font-size: 14px&quot;&gt;&lt;font style=&quot;font-size: 14px&quot;&gt;-&amp;gt; startCommonServices()&lt;/font&gt;&lt;/p&gt;&lt;p class=&quot;MsoNormal&quot; style=&quot;font-size: 14px&quot;&gt;&lt;font style=&quot;font-size: 14px&quot;&gt;&lt;span style=&quot;white-space: pre&quot;&gt;	&lt;/span&gt;-&amp;gt; FSNamesystem.startCommonServices()&lt;/font&gt;&lt;/p&gt;&lt;p class=&quot;MsoNormal&quot; style=&quot;font-size: 14px&quot;&gt;&lt;font style=&quot;font-size: 14px&quot;&gt;&lt;span style=&quot;white-space: pre&quot;&gt;		&lt;/span&gt;-&amp;gt; checkAvailableResources() -&amp;gt; 检查磁盘空间是否有100m来写入edits log&lt;/font&gt;&lt;/p&gt;&lt;p class=&quot;MsoNormal&quot; style=&quot;font-size: 14px&quot;&gt;&lt;font style=&quot;font-size: 14px&quot;&gt;&lt;span style=&quot;white-space: pre&quot;&gt;		&lt;/span&gt;-&amp;gt; setBlockTotal() -&amp;gt; 检查是否要进入safemode&lt;/font&gt;&lt;/p&gt;&lt;p class=&quot;MsoNormal&quot; style=&quot;font-size: 14px&quot;&gt;&lt;font style=&quot;font-size: 14px&quot;&gt;&lt;span style=&quot;white-space: pre&quot;&gt;		&lt;/span&gt;-&amp;gt; BlockManager.active() -&amp;gt; 启动一堆后台线程，做一些任务&lt;/font&gt;&lt;/p&gt;&lt;p class=&quot;MsoNormal&quot; style=&quot;font-size: 14px&quot;&gt;&lt;font style=&quot;font-size: 14px&quot;&gt;&lt;span style=&quot;white-space: pre&quot;&gt;	&lt;/span&gt;-&amp;gt; NameNodeRpcServer.start() -&amp;gt; 启动rpc server&lt;/font&gt;&lt;/p&gt;&lt;p class=&quot;MsoNormal&quot; style=&quot;font-size: 14px&quot;&gt;&lt;font style=&quot;font-size: 14px&quot;&gt;NameNode.join() -&amp;gt; 等待rpc server结束，理论上永远不会结束的&lt;/font&gt;&lt;/p&gt;" style="text;html=1;strokeColor=#d79b00;fillColor=#ffe6cc;align=left;verticalAlign=middle;whiteSpace=wrap;rounded=0;" vertex="1" parent="1">
          <mxGeometry x="950" y="720" width="520" height="430" as="geometry"/>
        </mxCell>
      </root>
    </mxGraphModel>
  </diagram>
</mxfile>
